<svg width="1200" height="800" xmlns="http://www.w3.org/2000/svg">

 <g>
  <title>Layer 1</title>
  <rect stroke-width="3" rx="10" id="svg_1" height="400" width="250" y="200" x="300" stroke="#426373" fill="#1A333F"/>
  <rect stroke="#426373" stroke-width="3" rx="10" id="svg_2" height="250" width="350" y="200" x="550" fill="#1A333F"/>
  <rect stroke-width="3" rx="10" id="svg_11" height="30" width="350" y="200" x="550" stroke="#426373" fill="#426373"/>
  <rect stroke-width="3" rx="10" id="svg_7" height="30" width="250" y="200" x="300" stroke="#426373" fill="#426373"/>
  <text font-weight="normal" font-style="normal" xml:space="preserve" text-anchor="start" font-family="Noto Sans JP" font-size="16" id="svg_3" y="220" x="310" stroke-width="0" stroke="#ffffff" fill="#ffffff">Prompt</text>
  <rect stroke="#426373" rx="10" stroke-width="3" id="svg_4" height="150" width="350" y="450" x="550" fill="#1A333F"/>
  <rect stroke-width="3" rx="10" id="svg_13" height="30" width="350" y="450" x="550" stroke="#426373" fill="#426373"/>
  <text style="cursor: move;" xml:space="preserve" text-anchor="start" font-family="Noto Sans JP" font-size="16" id="svg_5" y="470" x="560" stroke-width="0" stroke="#ffffff" fill="#ffffff">Test Results</text>
  <text xml:space="preserve" text-anchor="start" font-family="Noto Sans JP" font-size="16" id="svg_6" y="220" x="560" stroke-width="0" stroke="#ffffff" fill="#ffffff">Input Code</text>
  <line id="svg_9" y2="229.54539" x2="550" y1="229.54539" x1="300" fill-opacity="0" stroke-width="5" stroke="#426373" fill="none"/>
  <line id="svg_12" y2="229.54539" x2="900" y1="229.54539" x1="550" fill-opacity="0" stroke-width="5" stroke="#426373" fill="none"/>
  <line id="svg_14" y2="479.54659" x2="900" y1="479.54659" x1="550" fill-opacity="0" stroke-width="5" stroke="#426373" fill="none"/>
  <rect rx="3" stroke="null" id="svg_16" height="10" width="210" y="270" x="310" fill="#426373"/>
  <rect rx="3" stroke="null" id="svg_17" height="10" width="185" y="285" x="310" fill="#426373"/>
  <rect rx="3" stroke="null" id="svg_18" height="10" width="195" y="300.12605" x="310" fill="#426373"/>
  <rect rx="3" stroke="null" id="svg_19" height="10" width="175" y="315.2521" x="310" fill="#426373"/>
  <text font-weight="normal" font-style="normal" xml:space="preserve" text-anchor="start" font-family="Noto Sans JP" font-size="16" id="svg_20" y="255" x="310" stroke-width="0" stroke="#ffffff" fill="#ffffff">Check for Palindromes</text>
  <rect rx="3" stroke="null" id="svg_21" height="10" width="200" y="340" x="310" fill="#426373"/>
  <rect rx="3" stroke="null" id="svg_22" height="10" width="190" y="355.12605" x="310" fill="#426373"/>
  <rect rx="3" stroke="null" id="svg_23" height="10" width="175" y="370" x="310" fill="#426373"/>
  <rect rx="3" stroke="null" id="svg_24" height="10" width="180" y="385.12605" x="310" fill="#426373"/>
  <rect rx="3" stroke="null" id="svg_25" height="10" width="180" y="400.2521" x="310" fill="#426373"/>
  <rect rx="3" stroke="null" id="svg_26" height="10" width="190" y="415.37815" x="310" fill="#426373"/>
  <rect stroke="null" rx="3" id="svg_27" height="145" width="210" y="440" x="320" fill="#426373"/>
  <ellipse ry="8" rx="8" id="svg_28" cy="470" cx="425" stroke="#ffffff" fill="#ffffff"/>
  <ellipse ry="8" rx="8" id="svg_29" cy="500" cx="390" stroke="#ffffff" fill="#ffffff"/>
  <ellipse ry="8" rx="8" id="svg_30" cy="500" cx="460" stroke="#ffffff" fill="#ffffff"/>
  <ellipse ry="8" rx="8" id="svg_31" cy="540" cx="360" stroke="#ffffff" fill="#ffffff"/>
  <ellipse ry="8" rx="8" id="svg_32" cy="540" cx="434.78992" stroke="#ffffff" fill="#ffffff"/>
  <ellipse ry="8" rx="8" id="svg_33" cy="540" cx="490" stroke="#ffffff" fill="#ffffff"/>
  <line filter="url(#svg_34_blur)" stroke="#ffffff" id="svg_34" y2="460" x2="420" y1="460" x1="320" fill="none"/>
  <line transform="rotate(40 442.5 485.146)" stroke="#ffffff" stroke-width="2" id="svg_35" y2="485.146" x2="455" y1="485.146" x1="430" fill="none"/>
  <line transform="rotate(-40 407.5 484.529)" stroke="#ffffff" stroke-width="2" id="svg_36" y2="484.52877" x2="420" y1="484.52877" x1="395" fill="none"/>
  <line transform="rotate(-50 375 520)" stroke="#ffffff" stroke-width="2" id="svg_37" y2="520" x2="390" y1="520" x1="360" fill="none"/>
  <line transform="rotate(-55 446.885 519.982)" stroke="#ffffff" stroke-width="2" id="svg_38" y2="519.98244" x2="460.46547" y1="519.98244" x1="433.30406" fill="none"/>
  <line transform="rotate(55 475.319 519.859)" stroke="#ffffff" stroke-width="2" id="svg_39" y2="519.85904" x2="489.66892" y1="519.85904" x1="460.96843" fill="none"/>
  <rect stroke="null" rx="3" id="svg_40" height="10" width="50" y="245" x="560" fill="#426373"/>
  <rect stroke="null" rx="3" id="svg_41" height="10" width="30" y="245" x="615" fill="#426373"/>
  <rect stroke="null" rx="3" id="svg_42" height="10" width="30" y="245" x="650" fill="#426373"/>
  <rect stroke="null" rx="3" id="svg_43" height="10" width="50" y="259.87605" x="575" fill="#426373"/>
  <rect stroke="null" rx="3" id="svg_44" height="10" width="20" y="259.87605" x="630" fill="#426373"/>
  <rect stroke="null" rx="3" id="svg_45" height="10" width="35" y="259.87605" x="655" fill="#426373"/>
  <rect stroke="null" rx="3" id="svg_46" height="10" width="35" y="259.87605" x="695" fill="#426373"/>
  <rect stroke="null" rx="3" id="svg_47" height="10" width="20" y="274.99786" x="590" fill="#426373"/>
  <rect stroke="null" rx="3" id="svg_48" height="10" width="50" y="274.99786" x="615" fill="#426373"/>
  <rect stroke="null" rx="3" id="svg_49" height="10" width="10" y="274.99786" x="670" fill="#426373"/>
  <rect stroke="null" rx="3" id="svg_50" height="10" width="50" y="289.63188" x="590" fill="#426373"/>
  <rect stroke="null" rx="3" id="svg_51" height="10" width="60" y="289.63188" x="645" fill="#426373"/>
  <rect stroke="null" rx="3" id="svg_52" height="10" width="20" y="289.63188" x="710" fill="#426373"/>
  <rect stroke="null" rx="3" id="svg_53" height="10" width="85" y="289.63188" x="735" fill="#426373"/>
  <rect stroke="null" rx="3" id="svg_54" height="10" width="35" y="305.17239" x="590" fill="#426373"/>
  <rect stroke="null" rx="3" id="svg_56" height="10" width="50" y="305.17239" x="630" fill="#426373"/>
  <rect stroke="null" rx="3" id="svg_57" height="10" width="10" y="305.17239" x="685" fill="#426373"/>
  <rect stroke="null" rx="3" id="svg_58" height="10" width="25" y="320" x="575" fill="#426373"/>
  <rect stroke="null" rx="3" id="svg_59" height="10" width="40" y="320" x="605" fill="#426373"/>
  <rect stroke="null" rx="3" id="svg_60" height="10" width="25" y="350" x="560.13516" fill="#426373"/>
  <rect stroke="null" rx="3" id="svg_61" height="10" width="50" y="350" x="590" fill="#426373"/>
  <rect stroke="null" rx="3" id="svg_62" height="10" width="15" y="350" x="645" fill="#426373"/>
  <rect stroke="null" rx="3" id="svg_63" height="10" width="45" y="365" x="575" fill="#426373"/>
  <rect stroke="null" rx="3" id="svg_64" height="10" width="75" y="365" x="625" fill="#426373"/>
  <rect stroke="null" rx="3" id="svg_65" height="10" width="20" y="365" x="705" fill="#426373"/>
  <rect stroke="null" rx="3" id="svg_66" height="10" width="85" y="365" x="730" fill="#426373"/>
  <rect stroke="null" rx="3" id="svg_67" height="10" width="85" y="380" x="575" fill="#426373"/>
  <rect stroke="null" rx="3" id="svg_68" height="10" width="45" y="380" x="665" fill="#426373"/>
  <rect stroke="null" rx="3" id="svg_69" height="10" width="20" y="395" x="584.81296" fill="#426373"/>
  <rect stroke="null" rx="3" id="svg_70" height="10" width="30" y="395" x="610" fill="#426373"/>
  <rect stroke="null" rx="3" id="svg_71" height="10" width="50" y="395" x="645" fill="#426373"/>
  <rect stroke="null" rx="3" id="svg_72" height="10" width="15" y="395" x="700" fill="#426373"/>
  <rect stroke="null" rx="3" id="svg_73" height="10" width="10" y="395" x="720" fill="#426373"/>
  <rect stroke="null" rx="3" id="svg_74" height="10" width="30" y="410.42037" x="575" fill="#426373"/>
  <rect stroke="null" rx="3" id="svg_75" height="10" width="25" y="410.42037" x="610" fill="#426373"/>
  <rect rx="3" stroke="null" id="svg_76" height="25" width="330" y="492" x="560" fill="#426373"/>
  <rect rx="3" stroke="null" id="svg_80" height="25" width="330" y="527" x="560" fill="#426373"/>
  <rect rx="3" stroke="null" id="svg_81" height="25" width="330" y="562" x="560" fill="#426373"/>
  <rect rx="3" id="svg_82" height="10" width="250" y="499" x="615" stroke="null" fill="#23c386"/>
  <rect rx="3" id="svg_83" height="10" width="250" y="534" x="615" stroke="null" fill="#23c386"/>
  <rect rx="3" id="svg_84" height="10" width="250" y="569" x="615" stroke="null" fill="#ba1200"/>
  <path stroke="null" id="svg_86" d="m579.99998,504.4122l1.82061,-2.32543l4.98754,6.3674l8.31407,-10.61233l1.82126,2.32378l-10.13533,12.9394" fill="#23c386"/>
  <path id="svg_87" d="m594.61794,578.58448l-4.82702,-4.60733l4.82614,-4.60733l-2.48106,-2.36982l-4.82702,4.60733l-4.82702,-4.60733l-2.48106,2.36982l4.82614,4.60733l-4.82702,4.60733l2.48282,2.36898l4.82614,-4.60733l4.82614,4.60733" stroke="null" fill="#ba1200"/>
  <path stroke="null" id="svg_89" d="m580.33221,538.63138l1.82062,-2.32543l4.98754,6.3674l8.31406,-10.61233l1.82126,2.32379l-10.13532,12.9394" fill="#23c386"/>
  <rect stroke="null" rx="3" id="svg_90" height="20" width="60" y="205.69446" x="830" fill="#23c386"/>
  <text stroke="#ffffff" xml:space="preserve" text-anchor="start" font-family="Noto Sans JP" font-size="14" id="svg_91" y="220" x="840" stroke-width="0" fill="#ffffff">Submit</text>
 </g>
</svg>